<svg xmlns="http://www.w3.org/2000/svg" version="1.1" xmlns:xlink="http://www.w3.org/1999/xlink" xmlns:svgjs="http://svgjs.dev/svgjs" viewBox="0 0 1920 1080"><rect width="1920" height="1080" fill="#ccc62e"></rect><g transform="matrix(0.5750000000000001,0.9959292143521044,-0.9959292143521044,0.5750000000000001,927.7521062936544,-684.2951207871749)"><path d="M0,-1080C4.266208444089908,-964.1386131354619,37.664568590327185,-592.0216999063639,25.597250664539445,-384.83167881277154C13.529932738751702,-177.6416577191792,-69.53485369097093,-38.038391755245186,-72.40390755472646,163.14012656155404C-75.27296141848198,364.31864487835327,10.468882908311661,583.9439761099742,8.382927482006295,822.2394310880239C6.2969720557009285,1060.5348860660736,-83.52248553222427,1369.9527616111898,-84.91964011255865,1592.9128564298524C-86.31679469289304,1815.872951248515,-14.153273352093109,2065.485476071642,0,2160L 1920 2160 L 1920 -1080 Z" fill="url(&quot;#SvgjsLinearGradient1228&quot;)"></path><path d="M274.2857142857143,-1080C268.2636375463677,-976.5462454535074,231.36384636257475,-664.3222904544144,238.15325384963472,-459.2774727210439C244.9426613366947,-254.23265498767344,307.54834474301606,-82.85554981864118,315.0221592080742,150.26890640022293C322.4959736731323,383.39336261908704,296.5750227335109,702.1094154338634,282.9961406399836,939.4692645921407C269.4172585464563,1176.829113750418,235.00060437262215,1371.006212115243,233.5488666469106,1574.4280013498862C232.09712892119904,1777.8497905845295,267.49623967924697,2062.4046668916476,274.2857142857143,2160L 1920 2160 L 1920 -1080 Z" fill="url(&quot;#SvgjsLinearGradient1229&quot;)"></path><path d="M548.5714285714286,-1080C544.0132826825337,-963.7841750137094,512.5454032690335,-590.7584162185574,521.2225532380595,-382.7050500822562C529.8997032070855,-174.651683945955,608.590925732537,-50.898742343047815,600.6343283855845,168.3201968178072C592.6777310386319,387.5391359786622,468.5464804593331,705.2050558328787,473.4829691563445,932.6085848828739C478.4194578533559,1160.012113932869,617.7385173318055,1328.1761352649237,630.2532605676529,1532.741371117778C642.7680038035003,1737.3066069706324,562.185067237466,2055.456895186296,548.5714285714286,2160L 1920 2160 L 1920 -1080 Z" fill="url(&quot;#SvgjsLinearGradient1230&quot;)"></path><path d="M822.8571428571428,-1080C812.1938662591441,-1014.7338026852499,746.4233231511553,-841.7503566693255,758.877483269151,-688.4028161114993C771.3316433871466,-535.0552755536731,889.3467170881014,-337.0364545729403,897.5821035651167,-159.91475665304318C905.8174900421319,17.206941266853903,834.4214533879555,233.14368742884196,808.2898021312425,374.3273714078831C782.1581508745295,515.5110553869242,737.0171281562033,540.5941670565453,740.792196024839,687.1873472212037C744.5672638934747,833.7805273858621,821.2860685227483,1090.007881529838,830.9402093430567,1253.8864523958337C840.5943501633651,1417.7650232618294,800.0642186943417,1519.4398478164837,798.7170409466893,1670.4587724171781C797.3698631990369,1821.4776970178725,818.8337925387339,2078.409795402863,822.8571428571428,2160L 1920 2160 L 1920 -1080 Z" fill="url(&quot;#SvgjsLinearGradient1231&quot;)"></path><path d="M1097.142857142857,-1080C1083.029192493623,-971.611082934796,1019.6291925922235,-633.8205008761623,1012.4608692474524,-429.66649760877556C1005.2925459026812,-225.51249434138882,1046.1241016583665,-74.6565811445771,1054.1329170742304,144.92401960432048C1062.1417324900942,364.50462035321806,1066.5754008033928,657.9883889112277,1060.513761742636,887.81710688461C1054.4521226818792,1117.6458248579922,1011.6582334763203,1311.8658452587156,1017.7630827096905,1523.896327444614C1023.8679319430606,1735.9268096305123,1083.9128947373292,2053.982721240769,1097.142857142857,2160L 1920 2160 L 1920 -1080 Z" fill="url(&quot;#SvgjsLinearGradient1232&quot;)"></path><path d="M1371.4285714285716,-1080C1368.9298398177318,-1001.6512553267155,1355.0771657211312,-801.4722816918861,1356.4361817635333,-609.9075319602933C1357.7951978059355,-418.34278222870057,1387.6496736985878,-115.05893663195295,1379.5826676829838,69.38849838955696C1371.5156616673798,253.83593341106686,1300.969266713626,334.04734995051626,1308.0341456699093,496.7770781687661C1315.0990246261927,659.5068063870159,1420.4998791322,846.9984195437142,1421.971941420684,1045.7668676990556C1423.444003709168,1244.535315854397,1325.2904143994988,1503.6822450506568,1316.8665194008133,1689.3877671008142C1308.4426244021279,1875.0932891509717,1362.334896090612,2081.564627850136,1371.4285714285716,2160L 1920 2160 L 1920 -1080 Z" fill="url(&quot;#SvgjsLinearGradient1233&quot;)"></path><path d="M1645.7142857142856,-1080C1660.249081161234,-983.8079417927428,1734.4531466988142,-708.6509520345746,1732.923058395976,-502.84765075645674C1731.392970093138,-297.0443494783388,1662.1208065973215,-79.38831181213453,1636.5337558972576,154.81980766870757C1610.9467051971938,389.02792714954967,1583.8403467473763,661.7395538290307,1579.4007541955932,902.4010661285959C1574.96116164381,1143.062578428161,1598.8439453334431,1389.189059154198,1609.8962005865585,1598.7888814660987C1620.948455839674,1808.3887037779994,1639.7446048596644,2066.4648135776833,1645.7142857142856,2160L 1920 2160 L 1920 -1080 Z" fill="url(&quot;#SvgjsLinearGradient1234&quot;)"></path></g><defs><linearGradient x1="0.1" y1="0" x2="0" y2="1" id="SvgjsLinearGradient1228"><stop stop-color="#ccc62e" offset="0"></stop><stop stop-color="#ccac2e" offset="0"></stop></linearGradient><linearGradient x1="0.1" y1="0" x2="0" y2="1" id="SvgjsLinearGradient1229"><stop stop-color="#d3cd3c" offset="0"></stop><stop stop-color="#d3b43c" offset="0.14285714285714285"></stop></linearGradient><linearGradient x1="0.1" y1="0" x2="0" y2="1" id="SvgjsLinearGradient1230"><stop stop-color="#d7d24d" offset="0"></stop><stop stop-color="#d7bb4d" offset="0.2857142857142857"></stop></linearGradient><linearGradient x1="0.1" y1="0" x2="0" y2="1" id="SvgjsLinearGradient1231"><stop stop-color="#dbd65e" offset="0"></stop><stop stop-color="#dbc15e" offset="0.42857142857142855"></stop></linearGradient><linearGradient x1="0.1" y1="0" x2="0" y2="1" id="SvgjsLinearGradient1232"><stop stop-color="#deda6e" offset="0"></stop><stop stop-color="#dec76e" offset="0.5714285714285714"></stop></linearGradient><linearGradient x1="0.1" y1="0" x2="0" y2="1" id="SvgjsLinearGradient1233"><stop stop-color="#e2de7f" offset="0"></stop><stop stop-color="#e2cd7f" offset="0.7142857142857143"></stop></linearGradient><linearGradient x1="0.1" y1="0" x2="0" y2="1" id="SvgjsLinearGradient1234"><stop stop-color="#e6e390" offset="0"></stop><stop stop-color="#e6d590" offset="0.8571428571428571"></stop></linearGradient></defs></svg>