<svg xmlns="http://www.w3.org/2000/svg" version="1.1" xmlns:xlink="http://www.w3.org/1999/xlink" xmlns:svgjs="http://svgjs.dev/svgjs" viewBox="0 0 1920 1080"><rect width="1920" height="1080" fill="#a6ddba"></rect><g transform="matrix(0.5750000000000001,0.9959292143521044,-0.9959292143521044,0.5750000000000001,945.3180015172719,-725.4583872094074)"><path d="M0,-1080C2.8956037250029474,-987.4003623196771,17.627143062555337,-748.3294909503363,17.373622350017683,-524.402173918063C17.12010163748003,-300.4748568857897,-6.7785528730769045,24.268303220041815,-1.5211242752259295,263.5639021936398C3.7363043226250454,502.8595011672378,36.37852090122113,702.7834786833247,48.91819393712353,911.3714199235252C61.457866973025936,1119.9593611637256,81.8699462630424,1306.9867862887638,73.71691394018848,1515.091549634843C65.56388161733456,1723.1963129809221,12.286152323364746,2052.515258272474,0,2160L 1920 2160 L 1920 -1080 Z" fill="url(&quot;#SvgjsLinearGradient1108&quot;)"></path><path d="M320,-1080C314.74510736345707,-991.5114113758418,306.47658991535843,-710.3442424706324,288.4706441807423,-549.0684682550507C270.46469844612614,-387.792694039469,227.72254983742963,-288.80801138975744,211.9643255923031,-112.34535470651014C196.2061013471766,64.11730197673714,182.19828537454842,298.58343046846073,193.9212987099832,509.7074718444329C205.644312045418,720.8315132204051,257.396074667535,989.8320300090141,282.3024056049119,1154.3988935493228C307.20873654228876,1318.9657570896313,337.07635193506303,1329.5084686778384,343.35928433424436,1497.1086530862847C349.6422167334257,1664.708837494731,323.8932140557074,2049.5181088477143,320,2160L 1920 2160 L 1920 -1080 Z" fill="url(&quot;#SvgjsLinearGradient1109&quot;)"></path><path d="M640,-1080C661.0487449819173,-1022.5685320975749,747.5788212598198,-893.8792869299062,766.2924698915039,-735.4111925854493C785.0061185231879,-576.9430982409923,788.890322559484,-282.45030564511217,752.2818917901038,-129.19143393325794C715.6734610207236,24.067437778596258,577.8603450784419,49.84889385251907,546.6418852752228,184.14203768567586C515.4234254720036,318.4351815188327,562.1918673567228,505.10013644834316,564.9711329707885,676.5674290656827C567.7503985848542,848.0347216830223,570.98682971788,1053.7822143468995,563.3174789596171,1212.9457933897136C555.6481282013542,1372.1093724325276,506.1746082478136,1473.706535554186,518.9550284212107,1631.5489033225672C531.7354485946079,1789.3912710909483,619.8258380702018,2071.924817220428,640,2160L 1920 2160 L 1920 -1080 Z" fill="url(&quot;#SvgjsLinearGradient1110&quot;)"></path><path d="M960,-1080C973.4470326628671,-978.6154899219816,1049.3444794593292,-678.9130036772616,1040.6821959772021,-471.69293953188986C1032.019912495075,-264.4728753865181,916.0907194002236,-77.23276782456458,908.0262991072377,163.32038487223053C899.9618788142518,403.87353756902564,971.5803689142089,760.7095862293668,992.2956742192869,971.6259766488807C1013.0109795243649,1182.5423670683947,1037.7007433075871,1230.7563901641274,1032.318130937706,1428.818727389314C1026.9355185678248,1626.8810646145007,972.053021822951,2038.1364545648858,960,2160L 1920 2160 L 1920 -1080 Z" fill="url(&quot;#SvgjsLinearGradient1111&quot;)"></path><path d="M1280,-1080C1270.0660247933135,-998.2214132743169,1204.9357512371653,-762.3038254104179,1220.3961487598813,-589.3284796459014C1235.8565462825973,-416.353133881385,1367.2298487111211,-222.3536602748354,1372.7623851362953,-42.147925412901145C1378.2949215614694,138.0578094490331,1252.9619354424995,311.5219188930737,1253.591367310927,491.905929525704C1254.2207991793543,672.2899401583343,1388.323711832914,855.150768967119,1376.5389763468602,1040.1561383828805C1364.7542408608065,1225.1615077986419,1198.9727837857483,1415.2975024174193,1182.882954394605,1601.9381460202726C1166.7931250034615,1788.5787896231259,1263.8138257324342,2066.9896910033785,1280,2160L 1920 2160 L 1920 -1080 Z" fill="url(&quot;#SvgjsLinearGradient1112&quot;)"></path><path d="M1600,-1080C1580.9550662243353,-986.0493966864358,1507.0161287973551,-677.5346563620129,1485.730397346012,-516.2963801186147C1464.444665894669,-355.0581038752165,1458.111955420115,-250.80209133681993,1472.2856112919412,-112.57034253961069C1486.4592671637674,25.661406257598543,1570.6930937381642,151.52675157141272,1570.7723325769693,313.09411266464076C1570.8515714157745,474.6614737578688,1451.3455504456872,688.955353776165,1472.7610443247718,856.8338240197576C1494.1765382038564,1024.71229426335,1686.2436406656475,1191.14244545083,1699.265295851477,1320.364934126196C1712.2869510373066,1449.5874228015618,1567.4351914149956,1492.2295784263188,1550.8909754397496,1632.1687560719529C1534.3467594645035,1772.107933717587,1591.8151625732917,2072.0281260119923,1600,2160L 1920 2160 L 1920 -1080 Z" fill="url(&quot;#SvgjsLinearGradient1113&quot;)"></path></g><defs><linearGradient x1="0.1" y1="0" x2="0" y2="1" id="SvgjsLinearGradient1108"><stop stop-color="#a6ddba" offset="0"></stop><stop stop-color="#a6ddb1" offset="0"></stop></linearGradient><linearGradient x1="0.1" y1="0" x2="0" y2="1" id="SvgjsLinearGradient1109"><stop stop-color="#76cb94" offset="0"></stop><stop stop-color="#76cb86" offset="0.16666666666666666"></stop></linearGradient><linearGradient x1="0.1" y1="0" x2="0" y2="1" id="SvgjsLinearGradient1110"><stop stop-color="#46b76f" offset="0"></stop><stop stop-color="#46b75c" offset="0.3333333333333333"></stop></linearGradient><linearGradient x1="0.1" y1="0" x2="0" y2="1" id="SvgjsLinearGradient1111"><stop stop-color="#348752" offset="0"></stop><stop stop-color="#348744" offset="0.5"></stop></linearGradient><linearGradient x1="0.1" y1="0" x2="0" y2="1" id="SvgjsLinearGradient1112"><stop stop-color="#215634" offset="0"></stop><stop stop-color="#21562b" offset="0.6666666666666666"></stop></linearGradient><linearGradient x1="0.1" y1="0" x2="0" y2="1" id="SvgjsLinearGradient1113"><stop stop-color="#0f2617" offset="0"></stop><stop stop-color="#0f2613" offset="0.8333333333333334"></stop></linearGradient></defs></svg>