<svg xmlns="http://www.w3.org/2000/svg" version="1.1" xmlns:xlink="http://www.w3.org/1999/xlink" xmlns:svgjs="http://svgjs.dev/svgjs" viewBox="0 0 1920 1080"><rect width="1920" height="1080" fill="#c2ead1"></rect><g transform="matrix(0.5750000000000001,0.9959292143521044,-0.9959292143521044,0.5750000000000001,932.5749947633504,-695.5968984919566)"><path d="M0,-1080C2.0056068433986596,-1009.9135150181121,22.301158292899476,-821.5290302465412,12.033641060391957,-659.4810901086724C1.7661238278844387,-497.43314997080375,-69.70640619581815,-258.0452001247186,-61.60510339504511,-107.71235917278784C-53.503800594272086,42.62048177914292,49.28338023860098,92.26125570948611,60.641457865030134,242.51595560291224C71.99953549145928,392.77065549633835,21.69171317029616,630.9304117442181,6.543362363529809,793.8158401877689C-8.604988443236545,956.7012686313197,-28.384450744188317,1058.226547473987,-30.248646975567993,1219.8285262642173C-32.112843206947666,1381.4305050544476,-9.683256187342906,1606.7324673065198,-4.64181502474824,1763.4277129291502C0.3996261378464254,1920.1229585517806,-0.77363583745804,2093.904618821525,0,2160L 1920 2160 L 1920 -1080 Z" fill="url(&quot;#SvgjsLinearGradient1179&quot;)"></path><path d="M274.2857142857143,-1080C274.8231851662066,-955.5753417811918,267.1654266460202,-606.089874672047,277.51053956866826,-333.45205068715103C287.85565249131633,-60.8142267022551,346.03395542752185,262.28301816350495,336.35639182160264,555.8269439093755C326.67882821568344,849.370869655246,229.79027085580114,1160.449327772968,219.44515793315307,1427.811503788072C209.100045010505,1695.1736798031761,265.1456215602874,2037.9685839646786,274.2857142857143,2160L 1920 2160 L 1920 -1080 Z" fill="url(&quot;#SvgjsLinearGradient1180&quot;)"></path><path d="M548.5714285714286,-1080C535.3784306118544,-932.7377125817079,479.2585794137484,-480.2162307761125,469.413440813983,-196.42627549024732C459.5683022142176,87.36367979561791,476.0453304896228,353.44471703248615,489.5005969728362,622.7397317151913C502.9558634560496,892.0347463978965,540.2999011134979,1163.133767891849,550.1450397132633,1419.3438126059837C559.9901783130287,1675.5538573201184,548.8336970950677,2036.5573021009973,548.5714285714286,2160L 1920 2160 L 1920 -1080 Z" fill="url(&quot;#SvgjsLinearGradient1181&quot;)"></path><path d="M822.8571428571428,-1080C829.7318203951238,-960.2922849191057,851.451580141644,-589.1556076222471,864.105208085029,-361.75370951463424C876.758836028414,-134.3518114070214,917.1030672307234,85.35064457601595,898.7789105174529,284.4113886456772C880.4547538041825,483.4721327153385,759.8425554348389,627.3115629944489,754.1602678054063,832.6107549033333C748.4779801759737,1037.9099468122176,853.2357055655682,1294.9749992495392,864.6851847408576,1516.2065400989836C876.134663916147,1737.438080948428,829.8284831710953,2052.7010900164973,822.8571428571428,2160L 1920 2160 L 1920 -1080 Z" fill="url(&quot;#SvgjsLinearGradient1182&quot;)"></path><path d="M1097.142857142857,-1080C1093.3390970542066,-971.610586658591,1086.5940718231993,-658.8628478423874,1074.3202966109543,-429.6635199515465C1062.0465213987093,-200.46419206070559,1034.0533482664905,85.64799321467086,1023.500205869387,295.19596734504563C1012.9470634722834,504.7439414754204,1004.4300235687099,638.9408277977763,1011.0014422283332,827.6243248307021C1017.5728608879565,1016.307821863628,1048.571815341373,1205.2343370143847,1062.928717827127,1427.296949542601C1077.285620312881,1649.3595620708172,1091.4405005902354,2037.8828249237667,1097.142857142857,2160L 1920 2160 L 1920 -1080 Z" fill="url(&quot;#SvgjsLinearGradient1183&quot;)"></path><path d="M1371.4285714285716,-1080C1383.3012400316159,-984.1298762198426,1435.750003015898,-684.4801141314172,1442.6645830468374,-504.7792573190558C1449.5791630777767,-325.0784005066944,1428.820377822243,-164.2085448194762,1412.916051614208,-1.7948591258316355C1397.0117254061731,160.61882656781293,1356.7369426004002,278.8827492384979,1347.2386257986282,469.7028568428117C1337.7403089968561,660.5229644471254,1364.1797174294773,957.0327237254586,1355.9261508035763,1143.1257865000512C1347.6725841776754,1329.2188492746438,1295.1334892723903,1416.7821979070427,1297.7172260432228,1586.2612334903674C1300.3009628140553,1755.7402690736922,1359.1433471976802,2064.3768722483946,1371.4285714285716,2160L 1920 2160 L 1920 -1080 Z" fill="url(&quot;#SvgjsLinearGradient1184&quot;)"></path><path d="M1645.7142857142856,-1080C1655.0490272724867,-1012.5554370671302,1706.4294218267628,-824.2139128228135,1701.7227350634928,-675.3326224027813C1697.0160483002228,-526.4513319827491,1629.1572049456154,-322.49471223622857,1617.4741651346653,-186.7122574798069C1605.7911253237153,-50.92980272338522,1616.9455268565137,15.754895496292974,1631.6244961977927,139.36210613574872C1646.3034655390718,262.96931677520445,1712.140324983304,415.474869493092,1705.5479811823395,554.9310063569276C1698.955637381375,694.3871432207632,1610.5029450982845,846.5521742557755,1592.070433392006,976.0989273187624C1573.6379216857274,1105.6456803817493,1586.2786059799964,1200.757049640535,1594.9529109446685,1332.211524734849C1603.6272159093405,1463.6659998291632,1635.6560340517685,1626.8610320071225,1644.116263180038,1764.8257778846476C1652.5764923083075,1902.7905237621726,1645.4479486252444,2094.1376296474414,1645.7142857142856,2160L 1920 2160 L 1920 -1080 Z" fill="url(&quot;#SvgjsLinearGradient1185&quot;)"></path></g><defs><linearGradient x1="0.1" y1="0" x2="0" y2="1" id="SvgjsLinearGradient1179"><stop stop-color="#c2ead1" offset="0"></stop><stop stop-color="#c2eaca" offset="0"></stop></linearGradient><linearGradient x1="0.1" y1="0" x2="0" y2="1" id="SvgjsLinearGradient1180"><stop stop-color="#93daae" offset="0"></stop><stop stop-color="#93daa2" offset="0.14285714285714285"></stop></linearGradient><linearGradient x1="0.1" y1="0" x2="0" y2="1" id="SvgjsLinearGradient1181"><stop stop-color="#65ca8b" offset="0"></stop><stop stop-color="#65ca7a" offset="0.2857142857142857"></stop></linearGradient><linearGradient x1="0.1" y1="0" x2="0" y2="1" id="SvgjsLinearGradient1182"><stop stop-color="#3db369" offset="0"></stop><stop stop-color="#3db355" offset="0.42857142857142855"></stop></linearGradient><linearGradient x1="0.1" y1="0" x2="0" y2="1" id="SvgjsLinearGradient1183"><stop stop-color="#2d844e" offset="0"></stop><stop stop-color="#2d843f" offset="0.5714285714285714"></stop></linearGradient><linearGradient x1="0.1" y1="0" x2="0" y2="1" id="SvgjsLinearGradient1184"><stop stop-color="#1d5532" offset="0"></stop><stop stop-color="#1d5529" offset="0.7142857142857143"></stop></linearGradient><linearGradient x1="0.1" y1="0" x2="0" y2="1" id="SvgjsLinearGradient1185"><stop stop-color="#0d2717" offset="0"></stop><stop stop-color="#0d2713" offset="0.8571428571428571"></stop></linearGradient></defs></svg>