<svg xmlns="http://www.w3.org/2000/svg" version="1.1" xmlns:xlink="http://www.w3.org/1999/xlink" xmlns:svgjs="http://svgjs.dev/svgjs" viewBox="0 0 1920 1080"><rect width="1920" height="1080" fill="#a6aadd"></rect><g transform="matrix(0.5750000000000001,0.9959292143521044,-0.9959292143521044,0.5750000000000001,921.8746181573629,-670.5220333943735)"><path d="M0,-1080C1.8410047500077933,-1009.9142764204196,29.745887895251276,-786.2143359159057,11.04602850004676,-659.4856585225173C-7.653830895157757,-532.7569811291288,-120.1241783374738,-457.79633364688954,-112.1991563712271,-319.6279356396694C-104.27413440498042,-181.4595376324492,47.86026329507783,32.22048006635285,58.59616029752692,169.52472952080376C69.33205729997601,306.8289789752547,-22.402066593939235,381.1180230748847,-47.78377435653255,504.19756108703615C-73.16548211912585,627.2770990991876,-87.31280999785822,787.2795262940228,-93.69408627803296,908.0019575937122C-100.07536255820769,1028.7243888934015,-106.43112502399256,1108.0430820542915,-86.07143203758096,1228.5321488851723C-65.71173905116936,1349.0212157160531,14.118832967506497,1475.6917167265265,28.464071640436657,1630.9363585789977C42.809310313366815,1786.1810004314689,4.7440119400727765,2071.822726429833,0,2160L 1920 2160 L 1920 -1080 Z" fill="url(&quot;#SvgjsLinearGradient1078&quot;)"></path><path d="M320,-1080C318.7517898643223,-961.8305006839861,331.75654411161906,-587.8113081856225,312.5107391859338,-370.98300410391624C293.26493426024854,-154.15470002221005,223.40081814119574,-5.423056525479211,204.52517044588853,220.96982449023727C185.64952275058133,447.3627055059537,178.97082858000977,782.2710815253553,199.2568530140906,987.3742819903825C219.54287744817145,1192.4774824554097,306.11745921938865,1256.1514076121312,326.24131705037354,1451.5890272804006C346.3651748813584,1647.02664694867,321.0402195083956,2041.9315045467333,320,2160L 1920 2160 L 1920 -1080 Z" fill="url(&quot;#SvgjsLinearGradient1079&quot;)"></path><path d="M640,-1080C628.9739975565841,-1019.920102741001,575.7385149822484,-863.6168429541909,573.8439853395046,-719.520616446006C571.9494556967608,-575.424389937821,637.4737770725872,-370.4390820902098,628.6328221435374,-215.42264095089013C619.7918672144876,-60.406199811570474,525.8111446861268,57.269451967497986,520.798255765206,210.578030389912C515.7853668442852,363.886608812326,595.2870853818905,532.083263509603,598.5554886180129,704.4288295835939C601.8238918541352,876.7743956575849,542.8722902480379,1059.8794414671645,540.40867518194,1244.651426833858C537.9450601158421,1429.4234122005516,567.1752440850827,1660.5026462560647,583.773798221426,1813.060741783755C600.3723523577693,1965.6188373114453,630.6289663702377,2102.1767902972924,640,2160L 1920 2160 L 1920 -1080 Z" fill="url(&quot;#SvgjsLinearGradient1080&quot;)"></path><path d="M960,-1080C944.2490968140273,-1017.6459120145839,863.1910044960273,-841.6742821397131,865.494580884164,-705.8754720875037C867.7981572723006,-570.0766620352942,965.5361780457856,-413.5267161843882,973.82145832882,-265.2071396867432C982.1067386118543,-116.88756318909819,911.0640332842663,26.577791700635572,915.2062625823703,184.04198689836625C919.3484918804743,341.50618209609695,1008.7924856576095,514.7266119317277,998.674834117444,679.5780314996409C988.5571825772785,844.4294510675542,846.6693314944771,991.160439963262,854.5003533413774,1173.1505043058457C862.3313751882777,1355.1405686484295,1028.0776907557417,1607.0435016061178,1045.6609651988456,1771.5184175551435C1063.2442396419494,1935.9933335041692,974.2768275331409,2095.253069592524,960,2160L 1920 2160 L 1920 -1080 Z" fill="url(&quot;#SvgjsLinearGradient1081&quot;)"></path><path d="M1280,-1080C1294.897254339675,-966.2065872445728,1366.935144490236,-628.8085445300386,1369.3835260380501,-397.2395234674366C1371.8319075858642,-165.67050240483454,1301.0187118509784,112.44550824005677,1294.6902892868843,309.4141263756124C1288.3618667227902,506.382744511168,1329.5539274273945,592.1435821957556,1331.4129906534854,784.5721853458972C1333.2720538795763,977.0007884960388,1314.4135004190114,1234.7477761674452,1305.8446686434304,1463.9857452764622C1297.2758368678494,1693.2237143854793,1284.307444773905,2043.9976242127436,1280,2160L 1920 2160 L 1920 -1080 Z" fill="url(&quot;#SvgjsLinearGradient1082&quot;)"></path><path d="M1600,-1080C1609.7894834665033,-1027.6015296535718,1659.2441747278872,-914.3626851200081,1658.73690079902,-765.6091779214312C1658.229626870153,-616.8556707228543,1621.9236732393888,-319.4468494580034,1596.9563564267978,-187.47895680853816C1571.9890396142068,-55.5110641590729,1503.0200273832547,-90.07459462241188,1508.9329999234737,26.19817797536041C1514.8459724636928,142.4709505731327,1617.3327044451783,363.13275923573286,1632.4341916681117,510.1576787780955C1647.535678891045,657.182598320458,1591.8060919538725,775.302809227235,1599.5419232610743,908.3476952295362C1607.2777545682761,1041.3925812318373,1663.7652586163458,1164.059833499443,1678.849179511323,1308.4269947919022C1693.9331004063001,1452.7941560843615,1703.1869785494905,1632.621828782942,1690.0454486309366,1774.5506629842916C1676.9039187123826,1916.4794971856413,1615.0075747718229,2095.7584438307154,1600,2160L 1920 2160 L 1920 -1080 Z" fill="url(&quot;#SvgjsLinearGradient1083&quot;)"></path></g><defs><linearGradient x1="0.1" y1="0" x2="0" y2="1" id="SvgjsLinearGradient1078"><stop stop-color="#a6aadd" offset="0"></stop><stop stop-color="#a6b3dd" offset="0"></stop></linearGradient><linearGradient x1="0.1" y1="0" x2="0" y2="1" id="SvgjsLinearGradient1079"><stop stop-color="#7c82cd" offset="0"></stop><stop stop-color="#7c8fcd" offset="0.16666666666666666"></stop></linearGradient><linearGradient x1="0.1" y1="0" x2="0" y2="1" id="SvgjsLinearGradient1080"><stop stop-color="#525abd" offset="0"></stop><stop stop-color="#526cbd" offset="0.3333333333333333"></stop></linearGradient><linearGradient x1="0.1" y1="0" x2="0" y2="1" id="SvgjsLinearGradient1081"><stop stop-color="#3b429a" offset="0"></stop><stop stop-color="#3b529a" offset="0.5"></stop></linearGradient><linearGradient x1="0.1" y1="0" x2="0" y2="1" id="SvgjsLinearGradient1082"><stop stop-color="#2b3070" offset="0"></stop><stop stop-color="#2b3b70" offset="0.6666666666666666"></stop></linearGradient><linearGradient x1="0.1" y1="0" x2="0" y2="1" id="SvgjsLinearGradient1083"><stop stop-color="#1b1e45" offset="0"></stop><stop stop-color="#1b2545" offset="0.8333333333333334"></stop></linearGradient></defs></svg>