<svg xmlns="http://www.w3.org/2000/svg" version="1.1" xmlns:xlink="http://www.w3.org/1999/xlink" xmlns:svgjs="http://svgjs.dev/svgjs" viewBox="0 0 1920 1080"><rect width="1920" height="1080" fill="#dda6d6"></rect><g transform="matrix(0.5750000000000001,0.9959292143521044,-0.9959292143521044,0.5750000000000001,924.2017875756978,-675.9754357719419)"><path d="M0,-1080C-12.3732600334977,-985.1992855120409,-58.770568804715424,-710.9951123123417,-74.2395602009862,-511.1957130722453C-89.70855159725699,-311.39631383214896,-115.24190309721997,-72.84876540222137,-92.81394837762468,118.79639544057807C-70.38599365802939,310.4415562833775,58.877180676786374,459.9379750094482,60.32816811658557,638.6752519845512C61.77915555638477,817.4125289596542,-62.484023598808434,1014.2494591176431,-84.1080237388295,1191.2200572911959C-105.73202387885057,1368.1906554647485,-83.43383668001245,1539.0355172410668,-69.41583272354086,1700.4988410258675C-55.39782876706928,1861.9621648106681,-11.569305453923477,2083.4164735043114,0,2160L 1920 2160 L 1920 -1080 Z" fill="url(&quot;#SvgjsLinearGradient1066&quot;)"></path><path d="M320,-1080C309.2393319086718,-998.6654158883815,272.6371713608751,-770.4161308578998,255.43599145203052,-591.9924953302891C238.23481154318597,-413.5688598026784,210.17306037420485,-206.64548196953444,216.7929205469327,-9.458186834335606C223.41278071966053,187.72910830086323,260.075726286871,427.1853161499453,295.1551524883975,591.1312754809039C330.23457868992404,755.0772348118626,426.8047024500048,803.1355156529672,427.2694777560919,974.217569151416C427.73425306217894,1145.299622649865,315.82205061760203,1419.993191330166,297.94380432492005,1617.6235964715966C280.0655580322381,1815.2540016130272,316.3239673874867,2069.6039327452663,320,2160L 1920 2160 L 1920 -1080 Z" fill="url(&quot;#SvgjsLinearGradient1067&quot;)"></path><path d="M640,-1080C650.286595918504,-968.2297240472637,711.17766254994,-636.0139513286797,701.7195755110241,-409.3783442835825C692.2614884721082,-182.74273723848532,582.2157916191144,48.84285708616716,583.2514777665049,279.8136422705832C584.2871639138954,510.7844274549993,700.6886116711539,772.3838640231088,707.9336923953671,976.4463668229139C715.1787731195802,1180.508869622719,638.0442441776786,1306.9297202065663,626.721962111784,1504.188659069414C615.3996800458895,1701.4475979322615,637.7869936852974,2050.6981098449023,640,2160L 1920 2160 L 1920 -1080 Z" fill="url(&quot;#SvgjsLinearGradient1068&quot;)"></path><path d="M960,-1080C947.8048116336337,-1014.0444660366921,902.8389859465046,-831.2415031491623,886.8288698018023,-684.2667962201531C870.8187536570999,-537.2920892911438,868.8644337626702,-359.2932639573576,863.9393031317858,-198.1517584259446C859.0141725009014,-37.01025289453156,859.1470774268203,131.6619918582168,857.278086016496,282.58223696832505C855.4090946061717,433.50248207843333,831.4198362065808,542.6499675941814,852.7253546698405,707.369712234705C874.0308731331002,872.0894568752287,953.6716546439652,1104.3531004528322,985.1111967960542,1270.900704811467C1016.5507389481431,1437.4483091701018,1045.5478070483834,1558.4721225217584,1041.3626075823745,1706.655338386514C1037.1774081163655,1854.8385542512694,973.5604345970625,2084.4425563977525,960,2160L 1920 2160 L 1920 -1080 Z" fill="url(&quot;#SvgjsLinearGradient1069&quot;)"></path><path d="M1280,-1080C1272.5301899607998,-991.7456851527545,1235.7934222995975,-714.483490817152,1235.1811397647996,-550.4741109165273C1234.5688572300016,-386.46473101590254,1256.1425789254638,-287.4066061483113,1276.3263047912124,-95.94372059625192C1296.510030656961,95.51916495580744,1340.023336084366,413.0556377962222,1356.2834949592905,598.303202395829C1372.5436538342149,783.5507669954358,1403.53970144707,863.2232167920926,1373.8872580407588,1015.5416670013885C1344.2348146344475,1167.8601172106846,1194.0167108615499,1321.4708481518364,1178.3688345214234,1512.213903651605C1162.720958181297,1702.9569591513737,1263.0614724202374,2052.035650608601,1280,2160L 1920 2160 L 1920 -1080 Z" fill="url(&quot;#SvgjsLinearGradient1070&quot;)"></path><path d="M1600,-1080C1620.977441568703,-1002.1083744909466,1737.9499969460403,-772.2311338927731,1725.8646494122183,-612.65024694568C1713.7793018783964,-453.06935999858695,1532.9796948807548,-307.3616369688716,1527.4879147970687,-122.51467831744151C1521.9961347133826,62.33228033398862,1696.1013942277718,288.2084018860337,1692.9139689101014,496.4315049629007C1689.726543592431,704.6546080397677,1523.0345862232111,918.5512641895336,1508.363362891046,1126.8239401437602C1493.692139558881,1335.0966160979867,1589.6138560656195,1573.8715507122201,1604.886628917112,1746.06756068826C1620.1594017686043,1918.2635706643,1600.814438152852,2091.0112601147102,1600,2160L 1920 2160 L 1920 -1080 Z" fill="url(&quot;#SvgjsLinearGradient1071&quot;)"></path></g><defs><linearGradient x1="0.1" y1="0" x2="0" y2="1" id="SvgjsLinearGradient1066"><stop stop-color="#dda6d6" offset="0"></stop><stop stop-color="#dba6dd" offset="0"></stop></linearGradient><linearGradient x1="0.1" y1="0" x2="0" y2="1" id="SvgjsLinearGradient1067"><stop stop-color="#e3b6dd" offset="0"></stop><stop stop-color="#e1b6e3" offset="0.16666666666666666"></stop></linearGradient><linearGradient x1="0.1" y1="0" x2="0" y2="1" id="SvgjsLinearGradient1068"><stop stop-color="#e9c6e5" offset="0"></stop><stop stop-color="#e7c6e9" offset="0.3333333333333333"></stop></linearGradient><linearGradient x1="0.1" y1="0" x2="0" y2="1" id="SvgjsLinearGradient1069"><stop stop-color="#f0d7ec" offset="0"></stop><stop stop-color="#f0d7f0" offset="0.5"></stop></linearGradient><linearGradient x1="0.1" y1="0" x2="0" y2="1" id="SvgjsLinearGradient1070"><stop stop-color="#f6e7f4" offset="0"></stop><stop stop-color="#f5e7f6" offset="0.6666666666666666"></stop></linearGradient><linearGradient x1="0.1" y1="0" x2="0" y2="1" id="SvgjsLinearGradient1071"><stop stop-color="#fcf7fb" offset="0"></stop><stop stop-color="#fcf7fc" offset="0.8333333333333334"></stop></linearGradient></defs></svg>